<svg width="245" height="325" viewBox="0 0 245 325" fill="none" xmlns="http://www.w3.org/2000/svg">
<g clip-path="url(#clip0_29_585)">
<path d="M245 0H0V325H245V0Z" fill="#6B1E1E"/>
<path d="M227.033 10.8333H17.9667C14.8094 10.8333 12.25 13.0968 12.25 15.8889V309.111C12.25 311.903 14.8094 314.167 17.9667 314.167H227.033C230.191 314.167 232.75 311.903 232.75 309.111V15.8889C232.75 13.0968 230.191 10.8333 227.033 10.8333Z" stroke="#C7A15A" stroke-width="2"/>
<path d="M218.458 19.8611H26.5417C24.2865 19.8611 22.4583 21.4778 22.4583 23.4722V301.528C22.4583 303.522 24.2865 305.139 26.5417 305.139H218.458C220.714 305.139 222.542 303.522 222.542 301.528V23.4722C222.542 21.4778 220.714 19.8611 218.458 19.8611Z" stroke="#C7A15A" stroke-width="2"/>
<path d="M98 43.3333C114.333 28.8889 130.667 28.8889 147 43.3333C132.708 39 112.292 39 98 43.3333Z" fill="#C7A15A"/>
<path d="M122.5 40.4444C123.402 40.4444 124.133 39.7977 124.133 39C124.133 38.2022 123.402 37.5555 122.5 37.5555C121.598 37.5555 120.867 38.2022 120.867 39C120.867 39.7977 121.598 40.4444 122.5 40.4444Z" fill="#C7A15A"/>
<path d="M73.5 155.278H171.5" stroke="#C7A15A" stroke-width="2"/>
<path d="M109.979 107H104.93V106.141L105.994 106.062C106.137 106.049 106.245 105.997 106.316 105.906C106.395 105.815 106.434 105.721 106.434 105.623V94.5977L101.834 107H100.838L96.3945 94.7832V105.623C96.3945 105.721 96.4303 105.815 96.502 105.906C96.5801 105.997 96.6908 106.049 96.834 106.062L97.9766 106.141V107H93.6504V106.141L94.793 106.062C94.9362 106.049 95.0404 105.997 95.1055 105.906C95.1771 105.815 95.2129 105.721 95.2129 105.623V94.959C95.2129 94.8613 95.1771 94.7669 95.1055 94.6758C95.0404 94.5781 94.9362 94.526 94.793 94.5195L93.6504 94.4414V93.582H98.1328V94.1191L101.756 103.943L105.379 94.1777V93.582H109.979V94.4414L108.895 94.5195C108.751 94.526 108.641 94.5781 108.562 94.6758C108.491 94.7669 108.455 94.8613 108.455 94.959V105.623C108.455 105.721 108.491 105.815 108.562 105.906C108.641 105.997 108.751 106.049 108.895 106.062L109.979 106.141V107ZM121.609 107H111.238V106.141L112.273 106.062C112.417 106.049 112.524 105.997 112.596 105.906C112.674 105.815 112.713 105.721 112.713 105.623V94.959C112.713 94.8613 112.674 94.7669 112.596 94.6758C112.524 94.5781 112.417 94.526 112.273 94.5195L111.238 94.4414V93.582H120.955V96.5605H119.754L119.451 94.9199C119.445 94.8223 119.406 94.7344 119.334 94.6562C119.262 94.5781 119.181 94.5391 119.09 94.5391H114.754V99.5195H117.752C117.843 99.5195 117.924 99.4805 117.996 99.4023C118.074 99.3242 118.113 99.2493 118.113 99.1777L118.318 97.8008H119.334V102.264H118.318L118.113 100.877C118.113 100.805 118.074 100.727 117.996 100.643C117.918 100.558 117.837 100.516 117.752 100.516H114.754V106.023H119.812C119.897 106.023 119.975 105.978 120.047 105.887C120.125 105.789 120.167 105.708 120.174 105.643L120.535 103.66H121.609V107ZM136.092 94.4414L134.979 94.5195C134.835 94.526 134.728 94.5781 134.656 94.6758C134.591 94.7669 134.559 94.8613 134.559 94.959V107H132.996L125.555 95.7988V105.623C125.555 105.721 125.587 105.815 125.652 105.906C125.724 105.997 125.831 106.049 125.975 106.062L127.117 106.141V107H122.791V106.141L123.934 106.062C124.077 106.049 124.184 105.997 124.256 105.906C124.334 105.815 124.373 105.721 124.373 105.623V94.959C124.373 94.8613 124.334 94.7669 124.256 94.6758C124.184 94.5781 124.077 94.526 123.934 94.5195L122.752 94.4414V93.582H126.717V94.0801L133.377 104.139V94.959C133.377 94.8613 133.341 94.7669 133.27 94.6758C133.198 94.5781 133.094 94.526 132.957 94.5195L131.814 94.4414V93.582H136.092V94.4414ZM150.389 94.4414L149.227 94.5195C149.083 94.526 148.976 94.5781 148.904 94.6758C148.839 94.7669 148.807 94.8613 148.807 94.959V102.557C148.807 104.197 148.367 105.402 147.488 106.17C146.616 106.938 145.343 107.322 143.67 107.322C142.023 107.322 140.796 106.922 139.988 106.121C139.188 105.314 138.787 104.126 138.787 102.557V94.959C138.787 94.8613 138.751 94.7669 138.68 94.6758C138.615 94.5781 138.51 94.526 138.367 94.5195L137.303 94.4414V93.582H142.391V94.4414L141.248 94.5195C141.105 94.526 140.997 94.5781 140.926 94.6758C140.861 94.7669 140.828 94.8613 140.828 94.959V102.039C140.828 102.82 140.916 103.507 141.092 104.1C141.268 104.692 141.6 105.154 142.088 105.486C142.576 105.818 143.283 105.984 144.207 105.984C145.132 105.984 145.838 105.812 146.326 105.467C146.821 105.115 147.16 104.64 147.342 104.041C147.531 103.442 147.625 102.775 147.625 102.039V94.959C147.625 94.8613 147.586 94.7669 147.508 94.6758C147.436 94.5781 147.329 94.526 147.186 94.5195L146.043 94.4414V93.582H150.389V94.4414Z" fill="#C7A15A"/>
<path d="M98 274.444C114.333 288.889 130.667 288.889 147 274.444C132.708 278.778 112.292 278.778 98 274.444Z" fill="#C7A15A"/>
<path d="M122.5 280.222C123.402 280.222 124.133 279.575 124.133 278.778C124.133 277.98 123.402 277.333 122.5 277.333C121.598 277.333 120.867 277.98 120.867 278.778C120.867 279.575 121.598 280.222 122.5 280.222Z" fill="#C7A15A"/>
</g>
<defs>
<clipPath id="clip0_29_585">
<rect width="245" height="325" fill="white"/>
</clipPath>
</defs>
</svg>
