<svg width="245" height="325" viewBox="0 0 245 325" fill="none" xmlns="http://www.w3.org/2000/svg">
<g clip-path="url(#clip0_29_585)">
<path d="M245 0H0V325H245V0Z" fill="#6B1E1E"/>
<path d="M227.033 10.8333H17.9667C14.8094 10.8333 12.25 13.0968 12.25 15.8889V309.111C12.25 311.903 14.8094 314.167 17.9667 314.167H227.033C230.191 314.167 232.75 311.903 232.75 309.111V15.8889C232.75 13.0968 230.191 10.8333 227.033 10.8333Z" stroke="#C7A15A" stroke-width="2"/>
<path d="M218.458 19.8611H26.5417C24.2865 19.8611 22.4583 21.4778 22.4583 23.4722V301.528C22.4583 303.522 24.2865 305.139 26.5417 305.139H218.458C220.714 305.139 222.542 303.522 222.542 301.528V23.4722C222.542 21.4778 220.714 19.8611 218.458 19.8611Z" stroke="#C7A15A" stroke-width="2"/>
<path d="M98 43.3333C114.333 28.8889 130.667 28.8889 147 43.3333C132.708 39 112.292 39 98 43.3333Z" fill="#C7A15A"/>
<path d="M122.5 40.4444C123.402 40.4444 124.133 39.7977 124.133 39C124.133 38.2022 123.402 37.5555 122.5 37.5555C121.598 37.5555 120.867 38.2022 120.867 39C120.867 39.7977 121.598 40.4444 122.5 40.4444Z" fill="#C7A15A"/>
<path d="M73.5 155.278H171.5" stroke="#C7A15A" stroke-width="2"/>
<path d="M111.181 105H106.637V104.227L107.595 104.156C107.724 104.145 107.82 104.098 107.885 104.016C107.955 103.934 107.99 103.849 107.99 103.761V93.8379L103.851 105H102.954L98.9551 94.0049V103.761C98.9551 103.849 98.9873 103.934 99.0518 104.016C99.1221 104.098 99.2217 104.145 99.3506 104.156L100.379 104.227V105H96.4854V104.227L97.5137 104.156C97.6426 104.145 97.7363 104.098 97.7949 104.016C97.8594 103.934 97.8916 103.849 97.8916 103.761V94.1631C97.8916 94.0752 97.8594 93.9902 97.7949 93.9082C97.7363 93.8203 97.6426 93.7734 97.5137 93.7676L96.4854 93.6973V92.9238H100.52V93.4072L103.78 102.249L107.041 93.46V92.9238H111.181V93.6973L110.205 93.7676C110.076 93.7734 109.977 93.8203 109.906 93.9082C109.842 93.9902 109.81 94.0752 109.81 94.1631V103.761C109.81 103.849 109.842 103.934 109.906 104.016C109.977 104.098 110.076 104.145 110.205 104.156L111.181 104.227V105ZM121.648 105H112.314V104.227L113.246 104.156C113.375 104.145 113.472 104.098 113.536 104.016C113.606 103.934 113.642 103.849 113.642 103.761V94.1631C113.642 94.0752 113.606 93.9902 113.536 93.9082C113.472 93.8203 113.375 93.7734 113.246 93.7676L112.314 93.6973V92.9238H121.06V95.6045H119.979L119.706 94.1279C119.7 94.04 119.665 93.9609 119.601 93.8906C119.536 93.8203 119.463 93.7852 119.381 93.7852H115.479V98.2676H118.177C118.259 98.2676 118.332 98.2324 118.396 98.1621C118.467 98.0918 118.502 98.0244 118.502 97.96L118.687 96.7207H119.601V100.737H118.687L118.502 99.4893C118.502 99.4248 118.467 99.3545 118.396 99.2783C118.326 99.2021 118.253 99.1641 118.177 99.1641H115.479V104.121H120.031C120.107 104.121 120.178 104.08 120.242 103.998C120.312 103.91 120.351 103.837 120.356 103.778L120.682 101.994H121.648V105ZM134.683 93.6973L133.681 93.7676C133.552 93.7734 133.455 93.8203 133.391 93.9082C133.332 93.9902 133.303 94.0752 133.303 94.1631V105H131.896L125.199 94.9189V103.761C125.199 103.849 125.229 103.934 125.287 104.016C125.352 104.098 125.448 104.145 125.577 104.156L126.605 104.227V105H122.712V104.227L123.74 104.156C123.869 104.145 123.966 104.098 124.03 104.016C124.101 103.934 124.136 103.849 124.136 103.761V94.1631C124.136 94.0752 124.101 93.9902 124.03 93.9082C123.966 93.8203 123.869 93.7734 123.74 93.7676L122.677 93.6973V92.9238H126.245V93.3721L132.239 102.425V94.1631C132.239 94.0752 132.207 93.9902 132.143 93.9082C132.078 93.8203 131.984 93.7734 131.861 93.7676L130.833 93.6973V92.9238H134.683V93.6973ZM147.55 93.6973L146.504 93.7676C146.375 93.7734 146.278 93.8203 146.214 93.9082C146.155 93.9902 146.126 94.0752 146.126 94.1631V101.001C146.126 102.478 145.73 103.562 144.939 104.253C144.154 104.944 143.009 105.29 141.503 105.29C140.021 105.29 138.916 104.93 138.189 104.209C137.469 103.482 137.108 102.413 137.108 101.001V94.1631C137.108 94.0752 137.076 93.9902 137.012 93.9082C136.953 93.8203 136.859 93.7734 136.73 93.7676L135.772 93.6973V92.9238H140.352V93.6973L139.323 93.7676C139.194 93.7734 139.098 93.8203 139.033 93.9082C138.975 93.9902 138.945 94.0752 138.945 94.1631V100.535C138.945 101.238 139.024 101.856 139.183 102.39C139.341 102.923 139.64 103.339 140.079 103.638C140.519 103.937 141.154 104.086 141.986 104.086C142.818 104.086 143.454 103.931 143.894 103.62C144.339 103.304 144.644 102.876 144.808 102.337C144.978 101.798 145.062 101.197 145.062 100.535V94.1631C145.062 94.0752 145.027 93.9902 144.957 93.9082C144.893 93.8203 144.796 93.7734 144.667 93.7676L143.639 93.6973V92.9238H147.55V93.6973Z" fill="#C7A15A"/>
<path d="M98 274.444C114.333 288.889 130.667 288.889 147 274.444C132.708 278.778 112.292 278.778 98 274.444Z" fill="#C7A15A"/>
<path d="M122.5 280.222C123.402 280.222 124.133 279.575 124.133 278.778C124.133 277.98 123.402 277.333 122.5 277.333C121.598 277.333 120.867 277.98 120.867 278.778C120.867 279.575 121.598 280.222 122.5 280.222Z" fill="#C7A15A"/>
</g>
<defs>
<clipPath id="clip0_29_585">
<rect width="245" height="325" fill="white"/>
</clipPath>
</defs>
</svg>
